<?xml version="1.0" encoding="UTF-8"?>
<svg width="64" height="64" enable-background="new 0 0 864 864" version="1.1" viewBox="0 0 48 48" xml:space="preserve" xmlns="http://www.w3.org/2000/svg" xmlns:cc="http://creativecommons.org/ns#" xmlns:dc="http://purl.org/dc/elements/1.1/" xmlns:rdf="http://www.w3.org/1999/02/22-rdf-syntax-ns#"><metadata><rdf:RDF><cc:Work rdf:about=""><dc:format>image/svg+xml</dc:format><dc:type rdf:resource="http://purl.org/dc/dcmitype/StillImage"/><dc:title/></cc:Work></rdf:RDF></metadata><path d="m39.334 10.961c0.20941-0.07458 0.40284-0.14363 0.79166-0.28219-1.4623-0.41775-2.7658-0.79004-4.1365-1.1816 0.28688-0.1857 0.57279-0.37077 0.84642-0.54789-1.3348-0.45975-2.6197-0.069621-4.0182 0.38082 0.2325-0.38765 0.40465-0.67447 0.5768-0.96136-0.02783-0.056177-0.05562-0.1123-0.08351-0.16842-1.3734 0.55664-2.7469 1.1133-4.0943 1.6593 0.03845-0.10908 0.12223-0.34711 0.20602-0.58515-0.02489-0.053691-0.04969-0.10739-0.07453-0.16102-0.6087 0.371-1.2845 0.66578-1.8113 1.1297-0.9415 0.82904-1.7922 1.7609-2.6843 2.6465-0.06053 0.06012-0.14889 0.09225-0.31166 0.05409 0.67148-0.93358 1.3429-1.8671 2.0335-2.827-0.07221-0.0127-0.21613-0.038-0.53609-0.09418 0.80347-0.9162 1.5471-1.764 2.3293-2.6558-0.22003-0.048387-0.37834-0.083164-0.59848-0.13155 0.73565-0.47263 1.4332-0.92082 2.1901-1.4071-0.18062-0.16311-0.36259-0.32741-0.58007-0.52378 1.068-0.32945 2.1013-0.64816 3.171-0.97822-0.13652-0.1774-0.25288-0.32849-0.44039-0.57217 0.85103-0.52892 1.6932-1.0523 2.5354-1.5756 7.33e-4 -0.046975 0.0017-0.093893 0.0024-0.14075-0.95916 0.079555-1.9183 0.15911-2.9788 0.24707 0.11964-0.22116 0.21218-0.39217 0.30471-0.56313-1.1125 0.54653-2.225 1.0932-3.3654 1.6534 0.03112-0.26254 0.06662-0.56257 0.10219-0.86269-0.05279-0.043475-0.10553-0.08695-0.15837-0.13048-0.75698 0.91892-1.514 1.8381-2.2547 2.7371-0.03755-0.21658-0.08057-0.46466-0.12353-0.71275-0.06448-0.01016-0.1289-0.020439-0.19326-0.030601-0.55153 1.1804-1.1029 2.3607-1.6565 3.5458-0.052969-0.14561-0.11947-0.32866-0.23646-0.65037-0.22827 0.64749-0.52643 1.1715-0.58335 1.7205-0.12246 1.1814-0.1114 2.3762-0.17598 3.5645-0.01807 0.33097-0.10982 0.65799-0.19185 1.1238-1.395-1.5614-1.7311-3.7101-3.5682-4.7872-0.03355 0.2054-0.06114 0.37456-0.07261 0.44513-1.0642-0.7649-2.116-1.5209-3.1677-2.277-0.038 0.05279-0.076 0.10558-0.11405 0.15837 0.06639 0.24097 0.13268 0.48194 0.23301 0.84634-1.0129-0.68136-1.9512-1.2906-3.1581-1.1901 0.10592 0.2342 0.20179 0.44626 0.29924 0.66189h-3.7119c0.22781 0.2548 0.36433 0.40759 0.4693 0.52491-0.85426 0.3688-1.6853 0.72755-2.5163 1.0863 0.019486 0.047431 0.038904 0.094912 0.058324 0.14234 0.92728 0.077018 1.8546 0.15408 2.7864 0.23149-0.03636 0.24233-0.06617 0.4418-0.10202 0.6808 1.099-0.24108 2.1325-0.46771 3.236-0.7097-0.09491 0.27925-0.1652 0.48624-0.25938 0.76321 0.96774 0.05827 1.8645 0.1123 2.8284 0.1704-0.26587 0.18248-0.45574 0.31273-0.66804 0.45851 1.1369 0.40155 2.2206 0.78432 3.3768 1.1927-0.24628 0.15148-0.42305 0.26017-0.48121 0.29602 1.0855 0.54117 2.1786 1.0862 3.2719 1.6313-1.8685-0.18559-3.5686-1.4173-5.5392-0.46732 0.1564 0.14465 0.31189 0.28834 0.39438 0.36462-1.428 0.27683-2.8594 0.55421-4.4366 0.8599 0.44965 0.23454 0.71976 0.37551 0.86386 0.45072-1.036 0.49459-2.1217 1.0129-3.3573 1.6028 0.50775 0.2386 0.76952 0.36151 0.96642 0.45406-0.89568 0.94927-1.7551 1.8603-2.6145 2.7711 0.04257 0.04675 0.08514 0.09356 0.12771 0.1403 0.16091-0.02925 0.32182-0.05849 0.49002-0.08904-0.4278 1.1475-0.83535 2.2407-1.2429 3.3338 0.049798 0.0045 0.099656 9e-3 0.14945 0.01349 0.82582-0.77311 1.6517-1.5462 2.4873-2.3286 0.14166 0.21399 0.26243 0.39652 0.44497 0.67244 0.67735-1.0972 1.3027-2.1102 1.9457-3.1518 0.1276 0.28298 0.24272 0.53846 0.38037 0.84385 0.75339-0.71066 1.4734-1.3898 2.3218-2.1902-0.06437 0.41634-0.09509 0.61485-0.12071 0.78081 1.1896-0.57663 2.3574-1.1429 3.5252-1.709 0.06165 0.07741 0.12336 0.15476 0.18496 0.23217-0.79473 0.72907-1.5896 1.4581-2.4681 2.2639 0.39962 0.02862 0.63241 0.04534 0.73433 0.05257-1.1369 1.1887-2.3118 2.4173-3.4868 3.646 0.03906 0.03168 0.07819 0.06346 0.11726 0.09519 0.37236-0.0922 0.74474-0.18429 1.1171-0.27643-0.9555 1.1502-1.6494 2.3495-1.9048 3.78 0.31002-0.15752 0.6174-0.31375 0.87369-0.44395-0.142 1.494-0.28337 2.9808-0.4247 4.4675 0.07306 0.01644 0.14601 0.03292 0.21907 0.04941 0.10671-0.15498 0.21353-0.30985 0.39302-0.57047 0.41566 1.3115 0.32809 2.6316 1.1451 3.6014 0.24176-1.2195 0.48149-2.4288 0.72466-3.655 0.29461 0.13099 0.51836 0.23058 0.82112 0.36524-0.10394-1.4118-0.19913-2.7058-0.30127-4.0939 0.42475 0.23143 0.68921 0.37534 0.94744 0.5161 0.20614-1.1005 0.40008-2.1365 0.60808-3.2464 0.19309 0.24193 0.32069 0.40165 0.44163 0.5532 0.70242-1.3221 1.3908-2.6179 2.0792-3.9136 0.06126 0.03495 0.12246 0.0699 0.18372 0.10479 0.02766 0.24927 0.05533 0.49855 0.07866 0.7088 0.66454-1.1448 1.302-2.2429 1.9393-3.3409 0.08074 0.02812 0.16142 0.05612 0.24216 0.08424 0.18468 1.3501 0.48527 2.6966 0.52858 4.0512 0.07639 2.3922 0.03985 4.7687-0.52085 7.149-0.75119 3.1891-1.9265 6.1892-3.6363 8.9414-1.3071 2.1037-2.773 4.1335-4.6845 5.7832-0.7649 0.66013-1.4132 1.4541-2.1658 2.1302-0.59266 0.5322-1.2638 0.97705-1.9944 1.5325 1.3544 0 2.5762 0.01045 3.7975-0.01123 0.18446-0.0033 0.41492-0.11157 0.54032-0.2482 0.39014-0.4252 0.74679-0.88197 1.1044-1.336 1.3871-1.7615 2.7695-3.5268 4.1584-5.2967-0.30088-0.27541-0.4462-0.40843-0.65686-0.60114 1.1007 0.15216 1.1292-0.7866 1.4811-1.3141 0.44434-0.66623 0.74078-1.431 1.0961-2.1434-0.19998-0.16198-0.35716-0.2893-0.44869-0.36349 1.5015-0.81453 1.2106-2.5158 1.9391-3.6699-0.2137-0.12399-0.38003-0.22053-0.56398-0.32724 1.4844-0.8146 0.92713-2.3743 1.5049-3.4824-0.2482-0.12969-0.43017-0.22471-0.44208-0.23098 0.19564-0.35344 0.43841-0.64793 0.52486-0.9827 0.12506-0.48426 0.04788-1.0314 0.22082-1.4899 0.19276-0.51113 0.04845-0.68006-0.44728-0.71366 0.76196-0.93519 0.75661-2.6997 0.07955-3.214 0.93688-1.1257 0.07741-2.2937 0.26903-3.508 0.46964 0.93688 0.93923 1.8737 1.4165 2.8258 0.08553-0.16063 0.21399-0.40199 0.4007-0.75251 0.64325 1.3379 1.2515 2.6032 1.8594 3.8674 0.13184-0.09356 0.31781-0.22567 0.5729-0.4068 0.18288 1.1047 0.35112 2.1207 0.52813 3.1892 0.33041-0.17057 0.55794-0.28818 0.88021-0.45456-0.12336 1.352-0.23945 2.6241-0.36304 3.9782 0.33424-0.0856 0.51046-0.13065 0.80698-0.20664 0.17384 1.2402 0.34187 2.4392 0.53078 3.7872 0.75867-1.1833 1.0698-2.4012 1.2066-3.6713 0.20213 0.16424 0.35107 0.28529 0.65505 0.53231-0.10411-1.6046-0.19581-3.0174-0.2919-4.4988 0.24831 0.11563 0.47472 0.22099 0.8418 0.39183-0.19016-1.4942-0.92896-2.6035-1.8559-3.8143 0.4899 0.15132 0.81724 0.25238 1.2286 0.37947-0.96041-1.5913-2.0448-2.9517-3.5497-3.9823 0.3278 0.03985 0.65556 0.07961 0.98336 0.11947 0.06837-0.06821 0.13686-0.13635 0.20523-0.20444-0.66589-0.57606-1.3319-1.152-1.9977-1.7282 0.0297-0.03348 0.05957-0.06691 0.08926-0.10033 0.8978 0.64946 1.7957 1.2989 2.7284 1.9738 0.04737-0.22973 0.08169-0.39618 0.12512-0.60701 0.62519 0.76109 1.1992 1.4599 1.7766 2.1628 0.18101-0.21144 0.3417-0.39923 0.53445-0.62445 0.47788 1.102 0.92053 2.1229 1.3712 3.1621 0.22488-0.12427 0.40177-0.22206 0.64545-0.35672 0.68712 0.86364 1.3498 1.6968 2.0126 2.5298 0.06917-0.02507 0.13838-0.05019 0.2076-0.07526-0.24204-1.0949-0.48414-2.1897-0.7451-3.3699 0.25255 0.16757 0.46941 0.31154 0.68633 0.4554 0.04934-0.03964 0.0987-0.07921 0.14798-0.11879-0.79679-1.1416-1.5938-2.2832-2.4078-3.4494 0.25413-0.02292 0.50894-0.0459 0.89033-0.08039-0.90924-1.0642-1.9845-1.6916-3.3138-2.1399 0.42621-0.14047 0.76453-0.25204 1.1028-0.36355 0.01243-0.05601 0.02479-0.11196 0.0371-0.16797-1.3855-0.47229-2.7711-0.94465-4.1192-1.4041 0.05454-0.03743 0.21692-0.14883 0.42819-0.29382-1.909-0.89729-3.7819-0.59244-5.6607-0.10248-0.01002-0.08514-0.02009-0.17028-0.0302-0.25537 1.3734-0.26988 2.7469-0.53976 4.0719-0.80001-0.07458-0.05911-0.24774-0.1962-0.52118-0.41272 1.4041-0.12416 2.6815-0.23702 4.0679-0.35959-0.17243-0.22962-0.28038-0.37342-0.46123-0.61434 1.0698 0.23651 2.0297 0.4488 3.0031 0.66398 0.02569-0.35367 0.04274-0.58674 0.06459-0.88637 1.0629 0.56054 2.0755 1.0946 3.1315 1.6515 0.05081-0.30997 0.08842-0.53868 0.13675-0.83293 1.1321 0.2687 2.2191 0.52672 3.3061 0.78476v-0.1468c-0.86256-0.72021-1.7252-1.4401-2.6403-2.2038zm-17.669 2.0331s-4.1605-6.0751-11.597-3.9395v-0.18412s6.8847-2.3931 11.781 4.1237zm-12.518 8.2472-0.18411-0.18406s3.7554-7.4371 11.929-6.0012v0.25774s-7.2162-1.9513-11.745 5.9278zm11.818-4.1236s-7.9525 6.1119-5.8538 14.248h-0.22093s-2.5957-7.3352 6.0751-14.506v0.25774zm3.0191-4.4917h-0.07119s1.3967-8.6518 8.3183-9.9039v0.108c5.6e-5 0-6.1118 0.59153-8.2472 9.7962zm2.1355 2.6508s5.5964-2.1723 11.193 8.3212l-0.09084 0.12766s-4.8427-10.015-11.102-8.3066v-0.14234zm-0.4418 1.4359s7.6585 5.3019 6.0012 15.353h-0.18406s2.0986-8.8732-5.9249-15.171l0.10795-0.18158zm14.396-4.3273s-6.8114-5.4318-14.985 1.1217v-0.18164s7.1428-6.3326 15.169-1.0677l-0.18411 0.12766z" clip-rule="evenodd" fill-rule="evenodd" stroke-width=".056461"/></svg>
