<?xml version="1.0" encoding="UTF-8"?>
<svg width="64" height="64" enable-background="new 0 0 1000 1000" version="1.1" viewBox="0 0 48 48" xml:space="preserve" xmlns="http://www.w3.org/2000/svg" xmlns:cc="http://creativecommons.org/ns#" xmlns:dc="http://purl.org/dc/elements/1.1/" xmlns:rdf="http://www.w3.org/1999/02/22-rdf-syntax-ns#"><metadata><rdf:RDF><cc:Work rdf:about=""><dc:format>image/svg+xml</dc:format><dc:type rdf:resource="http://purl.org/dc/dcmitype/StillImage"/><dc:title/></cc:Work></rdf:RDF></metadata><g transform="matrix(.046383 0 0 .046383 .82794 .99543)"><path d="m796.4 925.6v-864.2c0-28.4 41.5-51.4 13-51.4h-601.4c-28.4 0 13 23 13 51.4v864.2h-72.6v64.4h703v-64.4zm-151.1-783.6h72.6v77.9h-72.6zm0 211.3h72.6v77.9h-72.6zm0 211.4h72.6v77.8h-72.6zm-140.6-422.7h72.6v77.9h-72.6zm0 211.3h72.6v77.9h-72.6zm0 211.4h72.6v77.8h-72.6zm-204.3-487.1h134.6v142.3h-134.6zm0 211.3h134.6v142.3h-134.6zm0 211.3h134.6v136.5h-134.6zm0 205.5h134.6v142.3h-134.6z"/></g></svg>
